<svg width="256" height="319" viewBox="0 0 256 319" fill="none" xmlns="http://www.w3.org/2000/svg">
<g clip-path="url(#clip0_1_17)">
<mask id="mask0_1_17" style="mask-type:luminance" maskUnits="userSpaceOnUse" x="0" y="0" width="256" height="256">
<path d="M256 0H0V256H256V0Z" fill="white"/>
</mask>
<g mask="url(#mask0_1_17)">
<path d="M128 256C198.692 256 256 198.692 256 128C256 57.3075 198.692 0 128 0C57.3075 0 0 57.3075 0 128C0 198.692 57.3075 256 128 256Z" fill="#70B9BE"/>
<path d="M130.602 255.967C200.092 254.58 256 197.823 256 128C256 126.638 255.972 125.281 255.93 123.928L192.273 60.272L162.828 111.947L75.421 194.535L98.5565 217.671L94.9555 220.32L130.602 255.967Z" fill="#3DA0A7"/>
<path d="M106.413 185.941H94.9525V220.321H106.413V185.941Z" fill="#FFF1CE"/>
<path d="M92.09 194.535H184.641C190.491 194.535 195.232 189.792 195.232 183.943V67.6045C195.232 61.7545 190.49 57.013 184.641 57.013H92.09V194.535Z" fill="#407A7E"/>
<path d="M184.641 57.012H143.228V194.535H184.641C190.491 194.535 195.232 189.793 195.232 183.944V67.6045C195.232 61.7545 190.49 57.012 184.641 57.012Z" fill="#28666A"/>
<path d="M96.2545 57.0095H75.421V194.534H96.2545V57.0095Z" fill="#F2D0A4"/>
<path d="M165.748 105.401C163.577 105.401 161.52 105.886 159.674 106.747C157.312 100.488 151.268 96.034 144.182 96.034C137.096 96.034 131.053 100.488 128.69 106.747C126.845 105.885 124.787 105.401 122.616 105.401C114.676 105.401 108.239 111.838 108.239 119.779C108.239 127.719 114.676 134.156 122.616 134.156C123.858 134.156 125.061 133.991 126.211 133.695V170.1H162.154V133.695C163.304 133.992 164.507 134.156 165.749 134.156C173.689 134.156 180.126 127.719 180.126 119.779C180.126 111.838 173.688 105.401 165.748 105.401Z" fill="white"/>
<path d="M165.749 105.401C163.577 105.401 161.52 105.886 159.674 106.747C157.312 100.488 151.268 96.034 144.182 96.034C143.861 96.034 143.545 96.053 143.229 96.071V170.099H162.154V133.695C163.304 133.991 164.507 134.156 165.749 134.156C173.689 134.156 180.126 127.718 180.126 119.778C180.126 111.838 173.689 105.401 165.749 105.401Z" fill="#D0D1D3"/>
</g>
</g>
<path d="M38.772 310V284.8H54.288V289.264H43.38V294.628H51.804V299.092H43.38V310H38.772ZM63.9084 310.36C61.9524 310.36 60.2844 309.934 58.9044 309.082C57.5244 308.23 56.4684 307.096 55.7364 305.68C55.0164 304.264 54.6564 302.716 54.6564 301.036C54.6564 299.344 55.0164 297.784 55.7364 296.356C56.4684 294.928 57.5244 293.788 58.9044 292.936C60.2844 292.072 61.9524 291.64 63.9084 291.64C65.8644 291.64 67.5324 292.072 68.9124 292.936C70.2924 293.788 71.3424 294.928 72.0624 296.356C72.7944 297.784 73.1604 299.344 73.1604 301.036C73.1604 302.716 72.7944 304.264 72.0624 305.68C71.3424 307.096 70.2924 308.23 68.9124 309.082C67.5324 309.934 65.8644 310.36 63.9084 310.36ZM63.9084 306.688C65.4084 306.688 66.5604 306.166 67.3644 305.122C68.1804 304.066 68.5884 302.704 68.5884 301.036C68.5884 299.344 68.1804 297.97 67.3644 296.914C66.5604 295.846 65.4084 295.312 63.9084 295.312C62.4204 295.312 61.2684 295.846 60.4524 296.914C59.6364 297.97 59.2284 299.344 59.2284 301.036C59.2284 302.704 59.6364 304.066 60.4524 305.122C61.2684 306.166 62.4204 306.688 63.9084 306.688ZM84.4397 310.36C82.4837 310.36 80.8157 309.934 79.4357 309.082C78.0557 308.23 76.9997 307.096 76.2677 305.68C75.5477 304.264 75.1877 302.716 75.1877 301.036C75.1877 299.344 75.5477 297.784 76.2677 296.356C76.9997 294.928 78.0557 293.788 79.4357 292.936C80.8157 292.072 82.4837 291.64 84.4397 291.64C86.3957 291.64 88.0637 292.072 89.4437 292.936C90.8237 293.788 91.8737 294.928 92.5937 296.356C93.3257 297.784 93.6917 299.344 93.6917 301.036C93.6917 302.716 93.3257 304.264 92.5937 305.68C91.8737 307.096 90.8237 308.23 89.4437 309.082C88.0637 309.934 86.3957 310.36 84.4397 310.36ZM84.4397 306.688C85.9397 306.688 87.0917 306.166 87.8957 305.122C88.7117 304.066 89.1197 302.704 89.1197 301.036C89.1197 299.344 88.7117 297.97 87.8957 296.914C87.0917 295.846 85.9397 295.312 84.4397 295.312C82.9517 295.312 81.7997 295.846 80.9837 296.914C80.1677 297.97 79.7597 299.344 79.7597 301.036C79.7597 302.704 80.1677 304.066 80.9837 305.122C81.7997 306.166 82.9517 306.688 84.4397 306.688ZM104.071 310.36C102.247 310.36 100.711 309.934 99.4629 309.082C98.2269 308.23 97.2909 307.096 96.6549 305.68C96.0309 304.264 95.7189 302.716 95.7189 301.036C95.7189 299.356 96.0309 297.808 96.6549 296.392C97.2909 294.976 98.2269 293.842 99.4629 292.99C100.711 292.138 102.247 291.712 104.071 291.712C105.391 291.712 106.507 291.934 107.419 292.378C108.331 292.81 109.135 293.368 109.831 294.052L108.751 294.988V283H113.215V310H109.003L108.787 306.94L110.083 307.876C109.243 308.644 108.373 309.25 107.473 309.694C106.573 310.138 105.439 310.36 104.071 310.36ZM104.719 306.688C105.703 306.688 106.507 306.448 107.131 305.968C107.755 305.488 108.217 304.828 108.517 303.988C108.817 303.136 108.967 302.152 108.967 301.036C108.967 299.92 108.817 298.942 108.517 298.102C108.217 297.25 107.755 296.584 107.131 296.104C106.507 295.624 105.703 295.384 104.719 295.384C103.783 295.384 102.985 295.624 102.325 296.104C101.665 296.584 101.161 297.25 100.813 298.102C100.465 298.942 100.291 299.92 100.291 301.036C100.291 302.152 100.465 303.136 100.813 303.988C101.161 304.828 101.665 305.488 102.325 305.968C102.985 306.448 103.783 306.688 104.719 306.688ZM117.557 310V284.8H126.773C128.513 284.8 130.031 285.076 131.327 285.628C132.635 286.18 133.649 287.02 134.369 288.148C135.089 289.276 135.449 290.704 135.449 292.432C135.449 294.28 135.053 295.75 134.261 296.842C133.481 297.922 132.449 298.78 131.165 299.416L136.853 310H131.705L126.845 300.64C126.809 300.64 126.779 300.64 126.755 300.64C126.731 300.64 126.701 300.64 126.665 300.64H122.165V310H117.557ZM122.165 296.788H125.549C127.445 296.788 128.765 296.404 129.509 295.636C130.253 294.856 130.625 293.872 130.625 292.684C130.625 291.424 130.259 290.44 129.527 289.732C128.795 289.012 127.529 288.652 125.729 288.652H122.165V296.788ZM147.416 310.36C145.244 310.36 143.432 309.928 141.98 309.064C140.54 308.188 139.46 307.036 138.74 305.608C138.02 304.168 137.66 302.596 137.66 300.892C137.66 299.248 137.996 297.73 138.668 296.338C139.352 294.946 140.348 293.83 141.656 292.99C142.964 292.138 144.56 291.712 146.444 291.712C148.172 291.712 149.612 292.066 150.764 292.774C151.916 293.482 152.78 294.43 153.356 295.618C153.932 296.794 154.22 298.096 154.22 299.524C154.22 299.92 154.196 300.322 154.148 300.73C154.1 301.126 154.028 301.54 153.932 301.972H142.304C142.472 303.088 142.82 303.994 143.348 304.69C143.888 305.374 144.542 305.878 145.31 306.202C146.09 306.526 146.924 306.688 147.812 306.688C148.856 306.688 149.828 306.556 150.728 306.292C151.628 306.016 152.456 305.656 153.212 305.212L153.428 308.992C152.744 309.352 151.892 309.67 150.872 309.946C149.852 310.222 148.7 310.36 147.416 310.36ZM142.412 298.948H149.684C149.684 298.408 149.582 297.868 149.378 297.328C149.174 296.776 148.832 296.314 148.352 295.942C147.884 295.57 147.248 295.384 146.444 295.384C145.292 295.384 144.386 295.72 143.726 296.392C143.066 297.064 142.628 297.916 142.412 298.948ZM165.62 310.36C163.556 310.36 161.822 309.94 160.418 309.1C159.026 308.248 157.97 307.12 157.25 305.716C156.542 304.3 156.188 302.74 156.188 301.036C156.188 299.32 156.542 297.754 157.25 296.338C157.958 294.91 159.02 293.77 160.436 292.918C161.852 292.066 163.628 291.64 165.764 291.64C166.772 291.64 167.684 291.754 168.5 291.982C169.316 292.198 170.012 292.468 170.588 292.792L170.228 296.392C169.676 296.104 169.052 295.864 168.356 295.672C167.672 295.48 166.952 295.384 166.196 295.384C164.468 295.384 163.13 295.906 162.182 296.95C161.234 297.994 160.76 299.356 160.76 301.036C160.76 302.632 161.246 303.976 162.218 305.068C163.19 306.148 164.504 306.688 166.16 306.688C166.868 306.688 167.564 306.586 168.248 306.382C168.944 306.166 169.616 305.872 170.264 305.5L170.66 309.28C170.036 309.604 169.28 309.862 168.392 310.054C167.516 310.258 166.592 310.36 165.62 310.36ZM173.651 310V292H178.115V310H173.651ZM173.651 289.264V284.8H178.115V289.264H173.651ZM182.299 318.712V292H185.899L186.763 294.988L185.431 294.52C186.259 293.668 187.159 292.99 188.131 292.486C189.103 291.97 190.291 291.712 191.695 291.712C193.459 291.712 194.941 292.138 196.141 292.99C197.341 293.842 198.247 294.976 198.859 296.392C199.483 297.808 199.795 299.356 199.795 301.036C199.795 302.716 199.483 304.264 198.859 305.68C198.247 307.096 197.341 308.23 196.141 309.082C194.941 309.934 193.459 310.36 191.695 310.36C190.291 310.36 189.151 310.168 188.275 309.784C187.399 309.4 186.511 308.788 185.611 307.948L186.763 307.048V318.712H182.299ZM191.011 306.688C192.343 306.688 193.375 306.166 194.107 305.122C194.851 304.066 195.223 302.704 195.223 301.036C195.223 299.356 194.851 297.994 194.107 296.95C193.375 295.906 192.343 295.384 191.011 295.384C189.979 295.384 189.133 295.624 188.473 296.104C187.813 296.584 187.327 297.25 187.015 298.102C186.703 298.942 186.547 299.92 186.547 301.036C186.547 302.152 186.703 303.136 187.015 303.988C187.327 304.828 187.813 305.488 188.473 305.968C189.133 306.448 189.979 306.688 191.011 306.688ZM211.577 310.36C209.405 310.36 207.593 309.928 206.141 309.064C204.701 308.188 203.621 307.036 202.901 305.608C202.181 304.168 201.821 302.596 201.821 300.892C201.821 299.248 202.157 297.73 202.829 296.338C203.513 294.946 204.509 293.83 205.817 292.99C207.125 292.138 208.721 291.712 210.605 291.712C212.333 291.712 213.773 292.066 214.925 292.774C216.077 293.482 216.941 294.43 217.517 295.618C218.093 296.794 218.381 298.096 218.381 299.524C218.381 299.92 218.357 300.322 218.309 300.73C218.261 301.126 218.189 301.54 218.093 301.972H206.465C206.633 303.088 206.981 303.994 207.509 304.69C208.049 305.374 208.703 305.878 209.471 306.202C210.251 306.526 211.085 306.688 211.973 306.688C213.017 306.688 213.989 306.556 214.889 306.292C215.789 306.016 216.617 305.656 217.373 305.212L217.589 308.992C216.905 309.352 216.053 309.67 215.033 309.946C214.013 310.222 212.861 310.36 211.577 310.36ZM206.573 298.948H213.845C213.845 298.408 213.743 297.868 213.539 297.328C213.335 296.776 212.993 296.314 212.513 295.942C212.045 295.57 211.409 295.384 210.605 295.384C209.453 295.384 208.547 295.72 207.887 296.392C207.227 297.064 206.789 297.916 206.573 298.948Z" fill="#042628"/>
<defs>
<clipPath id="clip0_1_17">
<rect width="256" height="256" fill="white"/>
</clipPath>
</defs>
</svg>
