<svg width="256" height="256" viewBox="0 0 256 256" fill="none" xmlns="http://www.w3.org/2000/svg">
<g clip-path="url(#clip0_2_34)">
<mask id="mask0_2_34" style="mask-type:luminance" maskUnits="userSpaceOnUse" x="0" y="0" width="256" height="256">
<path d="M256 0H0V256H256V0Z" fill="white"/>
</mask>
<g mask="url(#mask0_2_34)">
<path d="M128 256C198.692 256 256 198.692 256 128C256 57.3075 198.692 0 128 0C57.3075 0 0 57.3075 0 128C0 198.692 57.3075 256 128 256Z" fill="#70B9BE"/>
<path d="M130.601 255.967C200.092 254.58 256 197.822 256 128C256 126.637 255.972 125.28 255.93 123.928L192.273 60.272L162.828 111.947L75.421 194.535L98.5565 217.67L94.9555 220.32L130.601 255.967Z" fill="#3DA0A7"/>
<path d="M106.413 185.941H94.9525V220.321H106.413V185.941Z" fill="#FFF1CE"/>
<path d="M92.09 194.535H184.641C190.491 194.535 195.232 189.792 195.232 183.943V67.6044C195.232 61.7544 190.49 57.0129 184.641 57.0129H92.09V194.535Z" fill="#407A7E"/>
<path d="M184.641 57.012H143.228V194.535H184.641C190.491 194.535 195.232 189.792 195.232 183.943V67.6045C195.232 61.7545 190.49 57.012 184.641 57.012Z" fill="#28666A"/>
<path d="M96.2545 57.0095H75.421V194.534H96.2545V57.0095Z" fill="#F2D0A4"/>
<path d="M165.749 105.401C163.577 105.401 161.52 105.886 159.674 106.747C157.312 100.487 151.268 96.0339 144.182 96.0339C137.096 96.0339 131.053 100.487 128.691 106.747C126.845 105.885 124.788 105.401 122.617 105.401C114.676 105.401 108.239 111.838 108.239 119.779C108.239 127.719 114.676 134.156 122.617 134.156C123.859 134.156 125.061 133.991 126.211 133.695V170.1H162.154V133.695C163.304 133.991 164.507 134.156 165.749 134.156C173.689 134.156 180.126 127.719 180.126 119.778C180.126 111.838 173.689 105.401 165.749 105.401Z" fill="white"/>
<path d="M165.749 105.401C163.577 105.401 161.52 105.886 159.674 106.747C157.312 100.487 151.268 96.0339 144.182 96.0339C143.861 96.0339 143.545 96.0529 143.229 96.0709V170.099H162.154V133.694C163.304 133.991 164.507 134.155 165.749 134.155C173.689 134.155 180.126 127.718 180.126 119.778C180.126 111.837 173.689 105.401 165.749 105.401Z" fill="#D0D1D3"/>
</g>
</g>
<defs>
<clipPath id="clip0_2_34">
<rect width="256" height="256" fill="white"/>
</clipPath>
</defs>
</svg>
