<svg width="512" height="512" viewBox="0 0 512 512" fill="none" xmlns="http://www.w3.org/2000/svg">
<g clip-path="url(#clip0_14_45)">
<path d="M256 512C397.385 512 512 397.385 512 256C512 114.615 397.385 0 256 0C114.615 0 0 114.615 0 256C0 397.385 114.615 512 256 512Z" fill="#70B9BE"/>
<path d="M261.203 511.934C400.184 509.161 512 395.645 512 256C512 253.275 511.943 250.561 511.859 247.856L384.546 120.544L325.656 223.894L150.842 389.07L197.113 435.341L189.911 440.64L261.203 511.934Z" fill="#3DA0A7"/>
<path d="M212.826 371.881H189.905V440.642H212.826V371.881Z" fill="#FFF1CE"/>
<path d="M184.18 389.07H369.281C380.981 389.07 390.464 379.585 390.464 367.887V135.209C390.464 123.509 380.979 114.026 369.281 114.026H184.18V389.07Z" fill="#407A7E"/>
<path d="M369.281 114.024H286.456V389.07H369.281C380.981 389.07 390.464 379.585 390.464 367.887V135.209C390.465 123.509 380.98 114.024 369.281 114.024Z" fill="#28666A"/>
<path d="M192.509 114.019H150.842V389.068H192.509V114.019Z" fill="#F2D0A4"/>
<path d="M331.497 210.803C327.154 210.803 323.04 211.772 319.349 213.494C314.624 200.975 302.537 192.068 288.365 192.068C274.193 192.068 262.106 200.975 257.381 213.494C253.69 211.77 249.575 210.803 245.233 210.803C229.352 210.803 216.478 223.677 216.478 239.558C216.478 255.439 229.352 268.313 245.233 268.313C247.717 268.313 250.122 267.982 252.422 267.391V340.2H324.309V267.39C326.609 267.983 329.014 268.312 331.498 268.312C347.379 268.312 360.253 255.438 360.253 239.557C360.253 223.676 347.377 210.803 331.497 210.803Z" fill="white"/>
<path d="M331.497 210.803C327.154 210.803 323.04 211.772 319.349 213.494C314.624 200.975 302.537 192.068 288.365 192.068C287.722 192.068 287.089 192.106 286.457 192.142V340.198H324.309V267.389C326.609 267.982 329.014 268.311 331.498 268.311C347.379 268.311 360.253 255.437 360.253 239.556C360.253 223.675 347.377 210.803 331.497 210.803Z" fill="#D0D1D3"/>
</g>
<defs>
<clipPath id="clip0_14_45">
<rect width="512" height="512" fill="white"/>
</clipPath>
</defs>
</svg>
