<svg width="24" height="24" viewBox="0 0 24 24" fill="none" xmlns="http://www.w3.org/2000/svg">
<path d="M17.0986 6.98909C13.4542 3.49238 10.5415 3.2552 9.87578 3.25037L3.0785 19.7951C2.94842 20.1117 3.07898 20.3915 3.24482 20.5481C3.41066 20.7047 3.70466 20.8256 4.03202 20.6957L21.0334 13.962C21.0185 13.317 20.7336 10.4768 17.0986 6.98909Z" stroke="#0A2533" stroke-width="1.5" stroke-linejoin="round"/>
<path d="M17.1784 15.0983C17.0735 14.7301 16.8494 14.3881 16.6295 14.0549C16.4183 13.7346 16.2187 13.4323 16.1337 13.1265C16.0507 12.8285 16.0667 12.476 16.0838 12.1029C16.1085 11.5597 16.1339 10.9981 15.8503 10.5274C15.5788 10.0767 15.0705 9.82136 14.5792 9.57404C14.2389 9.40272 13.8868 9.22564 13.6449 8.99375C13.4032 8.76164 13.2187 8.42405 13.0401 8.0973C12.7823 7.62569 12.5159 7.13797 12.0465 6.87776C11.5562 6.60581 10.9711 6.63022 10.4044 6.65371C10.0154 6.66983 9.64817 6.68526 9.33761 6.60581C9.01889 6.52429 8.70353 6.33271 8.36993 6.13007" stroke="#0A2533" stroke-width="1.5"/>
<path d="M11 9.5C11 9.77614 10.7761 10 10.5 10C10.2239 10 10 9.77614 10 9.5C10 9.22386 10.2239 9 10.5 9C10.7761 9 11 9.22386 11 9.5Z" stroke="#0A2533" stroke-width="1.5"/>
<path d="M14.3321 14.3248C14.3321 14.6009 14.1082 14.8248 13.8321 14.8248C13.556 14.8248 13.3321 14.6009 13.3321 14.3248C13.3321 14.0486 13.556 13.8248 13.8321 13.8248C14.1082 13.8248 14.3321 14.0486 14.3321 14.3248Z" stroke="#0A2533" stroke-width="1.5"/>
<path d="M11.2945 14.5983C11.2945 14.8745 11.0706 15.0983 10.7945 15.0983C10.5184 15.0983 10.2945 14.8745 10.2945 14.5983C10.2945 14.3222 10.5184 14.0983 10.7945 14.0983C11.0706 14.0983 11.2945 14.3222 11.2945 14.5983Z" stroke="#0A2533" stroke-width="1.5"/>
<path d="M7.37 17.0854C7.37 17.3615 7.14614 17.5854 6.87 17.5854C6.59385 17.5854 6.37 17.3615 6.37 17.0854C6.37 16.8092 6.59385 16.5854 6.87 16.5854C7.14614 16.5854 7.37 16.8092 7.37 17.0854Z" stroke="#0A2533" stroke-width="1.5"/>
<path d="M8.37 12.9752C8.37 13.2514 8.14614 13.4752 7.87 13.4752C7.59385 13.4752 7.37 13.2514 7.37 12.9752C7.37 12.6991 7.59385 12.4752 7.87 12.4752C8.14614 12.4752 8.37 12.6991 8.37 12.9752Z" stroke="#0A2533" stroke-width="1.5"/>
</svg>
