<svg width="150" height="159" viewBox="0 0 150 159" fill="none" xmlns="http://www.w3.org/2000/svg">
<path d="M127.712 132.066C156.927 102.85 156.927 55.4817 127.712 26.266C98.4957 -2.94982 51.1276 -2.94982 21.9118 26.266C-7.30395 55.4817 -7.30395 102.85 21.9118 132.066C51.1276 161.281 98.4957 161.281 127.712 132.066Z" fill="#3DA0A7"/>
<path d="M74.8153 151.649C114.847 151.649 147.298 119.197 147.298 79.1661C147.298 39.1348 114.847 6.68311 74.8153 6.68311C34.7841 6.68311 2.33234 39.1348 2.33234 79.1661C2.33234 119.197 34.7841 151.649 74.8153 151.649Z" fill="#FFF6FA"/>
<path d="M125.121 129.474C152.905 101.69 152.905 56.6415 125.121 28.8566C97.3357 1.07173 52.2875 1.07173 24.5026 28.8566C-3.28221 56.6415 -3.28221 101.69 24.5026 129.474C52.2875 157.259 97.3357 157.259 125.121 129.474Z" fill="#BCE5E8"/>
<path d="M45.1539 143.834C54.1841 147.983 64.2237 150.315 74.8153 150.315C114.109 150.315 145.964 118.46 145.964 79.1663C145.964 56.4407 135.294 36.2188 118.707 23.1929C120.338 31.6271 120.911 40.3236 121.446 48.9215C122.031 58.3127 122.608 67.8171 120.89 77.0677C118.766 88.4924 113.224 99.0126 106.794 108.691C99.7737 119.256 91.4382 129.211 80.7858 136.097C70.3117 142.869 57.3404 146.411 45.1539 143.834Z" fill="#8FD2D7"/>
<path d="M133.43 122.473C133.43 123.548 132.632 124.419 131.648 124.419C130.664 124.419 129.866 123.548 129.866 122.473C129.866 121.399 130.664 120.528 131.648 120.528C132.632 120.528 133.43 121.399 133.43 122.473Z" fill="white"/>
<path d="M126.137 131.143C126.137 131.902 125.465 132.519 124.639 132.519C123.812 132.519 123.14 131.902 123.14 131.143C123.14 130.383 123.812 129.766 124.639 129.766C125.465 129.766 126.137 130.383 126.137 131.143Z" fill="white"/>
<path d="M115.189 119.543C137.488 97.2432 137.488 61.0883 115.189 38.7886C92.8891 16.4889 56.7342 16.4889 34.4345 38.7886C12.1348 61.0883 12.1348 97.2432 34.4345 119.543C56.7342 141.843 92.8891 141.843 115.189 119.543Z" fill="#FFF6FA"/>
<path d="M74.8153 133.817C104.998 133.817 129.467 109.349 129.467 79.1658C129.467 48.9828 104.998 24.5145 74.8153 24.5145C44.6322 24.5145 20.1639 48.9828 20.1639 79.1658C20.1639 109.349 44.6322 133.817 74.8153 133.817Z" fill="#ADDFE2"/>
<path d="M109.209 113.563C128.206 94.5656 128.206 63.7655 109.209 44.7686C90.2117 25.7716 59.4116 25.7716 40.4147 44.7685C21.4178 63.7655 21.4178 94.5656 40.4147 113.563C59.4116 132.559 90.2118 132.559 109.209 113.563Z" fill="#FFF6FA"/>
<path d="M74.8154 125.771C100.922 125.771 122.086 104.905 122.086 79.1658C122.086 53.4263 100.922 32.5604 74.8154 32.5604C48.7086 32.5604 27.5448 53.4263 27.5448 79.1658C27.5448 104.905 48.7086 125.771 74.8154 125.771Z" fill="#BCE5E8"/>
<path d="M21.2909 32.5587C22.2749 32.5587 23.0726 31.6464 23.0726 30.521C23.0726 29.3956 22.2749 28.4833 21.2909 28.4833C20.3069 28.4833 19.5092 29.3956 19.5092 30.521C19.5092 31.6464 20.3069 32.5587 21.2909 32.5587Z" fill="white"/>
<path d="M29.2195 25.295C30.2997 25.295 31.1753 24.425 31.1753 23.3517C31.1753 22.2785 30.2997 21.4084 29.2195 21.4084C28.1393 21.4084 27.2636 22.2785 27.2636 23.3517C27.2636 24.425 28.1393 25.295 29.2195 25.295Z" fill="white"/>
<path d="M42.977 54.8983C32.742 58.374 25.0136 65.7334 20.8614 75.6907C16.3701 86.4625 20.457 96.6192 28.7539 104.092C36.1748 110.775 47.392 113.513 56.8294 109.762C65.9444 106.137 73.2106 96.3546 71.3004 86.1699C69.4517 76.3206 61.1996 69.2482 51.0521 70.0104C39.7194 70.8621 32.4028 80.7281 29.0278 90.6594C27.3934 95.4694 26.7244 100.62 27.5965 105.635C28.5805 111.293 33.2154 116.253 37.3974 119.81C45.8545 127.002 57.2915 129.33 67.9403 126.594C90.1305 120.893 100.039 92.7969 91.7127 73.0053C87.7059 63.4821 79.0829 56.2587 68.5553 56.1637C59.0937 56.078 49.8799 62.4255 46.5589 71.2497C42.8988 80.976 44.7847 91.6005 51.4323 99.5432C58.6352 108.149 69.6026 108.123 79.1388 103.895C88.3134 99.8265 88.9992 87.3197 83.3487 80.0758C77.5156 72.5971 66.386 70.3403 58.501 76.1827C50.575 82.0569 45.5339 93.9636 49.6339 103.429C53.5643 112.497 62.0158 117.674 71.5744 118.959C93.062 121.847 115.215 98.9823 111.07 77.5674C106.925 56.145 74.6903 50.0324 62.2264 67.0044C55.1614 76.6263 51.4043 88.5125 50.4259 100.315C49.9619 105.904 50.2843 111.739 51.7249 117.166C53.2624 122.96 57.5021 127.095 61.904 130.869C66.2276 134.576 70.7003 137.96 76.39 139.106C81.4758 140.131 86.7461 138.24 91.4555 136.542C94.1391 135.575 93.1216 131.216 90.4081 132.194C83.5854 134.654 77.6516 136.109 70.9911 132.226C64.9958 128.729 58.3035 122.824 56.0709 116.118C51.9821 103.837 55.8361 88.2348 61.371 77.053C64.4348 70.8639 68.1472 65.042 75.0332 62.91C81.5168 60.9029 88.798 61.3856 94.9517 64.2034C100.438 66.7155 104.544 71.6821 106.394 77.3587C108.651 84.2821 105.725 91.8595 102.335 97.8716C95.8387 109.4 82.8344 116.567 69.612 114.158C64.2037 113.172 59.6453 110.151 56.192 105.956C51.6224 100.404 51.9355 93.5033 55.0291 87.3664C58.3314 80.8157 64.0863 76.3486 71.6713 77.5749C78.8853 78.7415 83.4606 86.3544 82.3144 93.2815C81.1553 100.279 72.2005 102.434 66.2127 102.432C58.775 102.43 52.8971 95.7713 50.4819 89.338C45.9141 77.176 52.5989 63.7989 65.2995 60.97C79.1276 57.8894 88.2165 71.8722 90.1827 83.6614C92.4265 97.1205 84.9216 112.167 73.5628 119.355C61.727 126.845 46.5366 123.098 37.2035 113.524C31.9705 108.155 30.8616 102.128 32.4513 95.0184C34.1155 87.5807 38.003 80.497 44.7139 76.5759C58.6539 68.43 71.7272 84.0659 64.8765 97.2995C58.0612 110.464 40.4201 108.602 30.9194 100.048C26.0404 95.6558 22.9244 89.7984 23.4779 83.1751C24.0445 76.4082 28.3494 70.0775 33.1408 65.5638C36.2214 62.664 40.0325 60.5972 44.017 59.2442C46.7323 58.3255 45.7091 53.9683 42.977 54.8983Z" fill="#FFA25F"/>
<path d="M50.3421 119.346C59.0881 125.697 69.558 127.759 80.0874 125.401C91.476 122.852 97.4117 113.651 98.7218 102.562C99.894 92.6441 95.6562 81.904 87.145 76.3654C78.9245 71.0149 66.742 70.7279 59.5279 78.1675C52.5524 85.3611 51.5404 96.185 58.0203 104.029C65.2567 112.79 77.5361 113.071 87.596 110.093C92.4675 108.651 97.0595 106.224 100.651 102.616C104.702 98.5462 106.078 91.8987 106.568 86.4308C107.559 75.3739 102.857 64.6916 94.4765 57.5744C77.0125 42.7455 48.3499 50.8728 36.9948 69.0972C31.5326 77.8656 30.6101 89.0771 36.611 97.7281C42.0024 105.503 52.5058 109.363 61.6283 106.981C71.6844 104.355 79.2693 96.6826 81.9175 86.6693C84.7875 75.8193 78.4344 66.8795 69.476 61.5327C60.8586 56.3891 50.2508 63.0498 47.597 71.8442C44.8575 80.9238 49.4383 91.3153 58.762 94.381C68.1323 97.4616 80.7658 94.7071 86.1274 85.894C91.2655 77.45 90.6113 67.5597 86.1442 59.0131C76.0993 39.7992 44.6413 34.909 29.5478 50.6548C14.4469 66.4061 28.0644 96.2558 49.1177 96.636C61.0543 96.8522 72.9274 93.0578 83.1289 87.0439C87.9594 84.1963 92.5383 80.5659 96.1388 76.2554C99.9816 71.656 100.912 65.8079 101.454 60.0325C101.985 54.3634 102.166 48.7557 99.8176 43.4481C97.7192 38.7033 93.1328 35.4923 89.0272 32.6261C86.6865 30.9936 83.7159 34.3406 86.0809 35.9899C92.0277 40.1402 96.642 44.147 97.3148 51.827C97.9205 58.7392 96.9607 67.6138 92.775 73.3072C85.1062 83.736 70.1431 89.5952 57.8153 91.5296C50.9925 92.6012 44.0953 92.9293 38.3795 88.5386C32.9974 84.4032 29.19 78.1787 27.9376 71.5274C26.8213 65.5973 28.5079 59.3784 32.073 54.5907C36.4227 48.752 44.3003 46.7672 51.1659 46.0628C64.3286 44.7135 77.6908 51.1953 83.3544 63.3815C85.6709 68.3667 85.8349 73.8327 84.4036 79.0732C82.5083 86.0096 76.6919 89.7368 69.8953 90.7525C62.6402 91.8372 55.6702 89.7163 52.2933 82.8153C49.0823 76.2498 52.6568 68.1207 58.9745 65.0588C65.3574 61.9651 72.2863 68.0331 75.7415 72.9251C80.0315 78.9987 77.989 87.6422 74.1294 93.3299C66.8352 104.081 52.0529 106.344 42.4124 97.6069C31.9165 88.0931 38.0851 72.6008 46.5776 64.1903C56.2722 54.5889 72.892 52.0301 85.3186 57.157C98.2671 62.4981 103.975 77.0661 101.543 90.2121C100.181 97.5846 95.8984 101.97 89.1745 104.774C82.1412 107.708 74.1108 108.623 67.0365 105.408C52.3381 98.727 57.5581 79.0248 72.3199 76.9804C87.0034 74.9453 95.6673 90.4264 94.1653 103.121C93.3937 109.642 90.4119 115.567 84.6831 118.938C78.8314 122.382 71.1756 122.522 64.7237 121.213C60.5772 120.373 56.6896 118.453 53.2848 115.98C50.972 114.301 48.0051 117.65 50.3421 119.346Z" fill="#FFA25F"/>
<path d="M60.7449 119.346C69.4908 125.697 79.9607 127.759 90.4902 125.401C101.879 122.852 107.814 113.651 109.125 102.562C110.297 92.6441 106.059 81.904 97.5477 76.3654C89.3273 71.0149 77.1447 70.7279 69.9306 78.1675C62.9551 85.3611 61.9432 96.185 68.423 104.029C75.6594 112.79 87.9388 113.071 97.9987 110.093C102.87 108.651 107.462 106.224 111.053 102.616C115.105 98.5462 116.48 91.8987 116.97 86.4308C117.962 75.3739 113.26 64.6916 104.879 57.5744C87.4152 42.7455 58.7526 50.8728 47.3976 69.0972C41.9353 77.8656 41.0128 89.0771 47.0137 97.7281C52.4051 105.503 62.9085 109.363 72.031 106.981C82.0871 104.355 89.672 96.6826 92.3202 86.6693C95.1902 75.8193 88.8371 66.8795 79.8787 61.5327C71.2613 56.3891 60.6535 63.0498 57.9997 71.8442C55.2602 80.9238 59.841 91.3153 69.1647 94.381C78.535 97.4616 91.1685 94.7071 96.5302 85.894C101.668 77.45 101.014 67.5597 96.5469 59.0131C86.502 39.7992 55.044 34.909 39.9505 50.6548C24.8496 66.4061 38.4671 96.2558 59.5204 96.636C71.457 96.8522 83.3301 93.0578 93.5316 87.0439C98.3621 84.1963 102.941 80.5659 106.542 76.2554C110.384 71.656 111.314 65.8079 111.857 60.0325C112.388 54.3634 112.569 48.7557 110.22 43.4481C108.122 38.7033 103.536 35.4923 99.43 32.6261C97.0893 30.9936 94.1186 34.3406 96.4836 35.9899C102.43 40.1402 107.045 44.147 107.717 51.827C108.323 58.7392 107.363 67.6138 103.178 73.3072C95.5089 83.736 80.5459 89.5952 68.218 91.5296C61.3953 92.6012 54.498 92.9293 48.7822 88.5386C43.4001 84.4032 39.5927 78.1787 38.3403 71.5274C37.224 65.5973 38.9106 59.3784 42.4757 54.5907C46.8254 48.752 54.703 46.7672 61.5686 46.0628C74.7313 44.7135 88.0935 51.1953 93.7571 63.3815C96.0736 68.3667 96.2376 73.8327 94.8063 79.0732C92.911 86.0096 87.0946 89.7368 80.298 90.7525C73.0429 91.8372 66.073 89.7163 62.6961 82.8153C59.485 76.2498 63.0595 68.1207 69.3772 65.0588C75.7619 61.9651 82.689 68.0331 86.1442 72.9251C90.4342 78.9987 88.3917 87.6422 84.5321 93.3299C77.2379 104.081 62.4557 106.344 52.8151 97.6069C42.3173 88.0931 48.4878 72.6008 56.9803 64.1903C66.6749 54.5889 83.2947 52.0301 95.7213 57.157C108.67 62.4981 114.378 77.0661 111.946 90.2121C110.584 97.5846 106.301 101.97 99.5772 104.774C92.5439 107.708 84.5135 108.623 77.4392 105.408C62.7408 98.727 67.9608 79.0248 82.7226 76.9804C97.4061 74.9453 106.07 90.4264 104.568 103.121C103.796 109.642 100.815 115.567 95.0858 118.938C89.2341 122.382 81.5783 122.522 75.1264 121.213C70.9799 120.373 67.0923 118.453 63.6875 115.98C61.3766 114.301 58.4097 117.65 60.7449 119.346Z" fill="#FFA25F"/>
<path d="M39.056 100.523C41.6464 111.018 48.3182 119.346 57.886 124.333C68.2348 129.728 78.7027 126.523 86.8561 118.893C94.1485 112.069 97.8328 101.127 94.8995 91.4047C92.0668 82.0139 82.9406 73.9389 72.6292 74.9732C62.6588 75.9739 54.9061 83.5924 54.7999 93.7678C54.6806 105.13 63.8869 113.265 73.4939 117.475C78.1474 119.514 83.222 120.621 88.293 120.179C94.0143 119.682 99.3517 115.486 103.252 111.623C111.139 103.811 114.436 92.6142 112.619 81.7698C108.832 59.1752 81.6845 46.9032 61.2555 53.5098C51.4249 56.6891 43.4933 64.6636 42.5 75.1446C41.6073 84.5652 47.146 94.2859 55.6534 98.3486C65.0331 102.825 75.7787 101.852 84.2582 95.9072C93.4477 89.4647 94.3572 78.5364 90.9579 68.6722C87.6873 59.1845 75.2849 57.4346 67.5862 62.4459C59.6379 67.6193 56.438 78.5159 61.5872 86.8705C66.7625 95.268 78.1958 101.308 87.9761 98.0299C97.3483 94.8879 103.226 86.9078 105.323 77.4947C110.036 56.3313 89.1446 32.3092 67.4539 34.6089C45.7557 36.9105 36.9147 68.5045 52.7611 82.3717C61.7456 90.2325 73.2666 94.9904 84.9422 96.9733C90.4697 97.9125 96.3121 98.0896 101.843 97.1168C107.747 96.0787 112.229 92.2098 116.367 88.1453C120.429 84.1552 124.183 79.9863 125.81 74.4159C127.265 69.4363 125.83 64.0244 124.54 59.1864C123.804 56.4301 119.376 57.0712 120.12 59.8573C121.989 66.8645 122.932 72.9027 118.495 79.2055C114.501 84.8802 108.044 91.0432 101.172 92.6962C88.5855 95.7227 73.3709 90.5512 62.7017 84.0807C56.7958 80.4988 51.313 76.3038 49.7756 69.2611C48.3275 62.6285 49.4308 55.4181 52.7648 49.5254C55.7354 44.2737 61.0337 40.6061 66.8482 39.2475C73.9375 37.5889 81.2391 41.1521 86.94 45.0415C97.8701 52.4978 103.905 66.0669 100.375 79.0359C98.9305 84.3398 95.5313 88.6242 91.0567 91.7067C85.1341 95.7861 78.2872 94.8841 72.4354 91.278C66.1904 87.4278 62.2302 81.3132 64.1012 73.8606C65.8791 66.7714 73.8555 62.8633 80.6596 64.5965C87.5345 66.3483 88.9154 75.454 88.4029 81.4213C87.7655 88.8311 80.6316 94.12 74.0139 95.9781C61.5052 99.491 48.7487 91.6899 47.0155 78.7936C45.1277 64.7531 59.8335 56.8904 71.7477 55.9381C85.3503 54.8516 99.7002 63.6125 105.893 75.5453C112.345 87.9776 107.313 102.793 96.9793 111.273C91.1834 116.029 85.0838 116.62 78.1362 114.428C70.8681 112.136 64.1404 107.657 60.8064 100.635C53.8793 86.0505 70.5755 74.36 83.1754 82.314C95.7102 90.2288 92.3501 107.646 83.0152 116.381C78.2219 120.867 72.1204 123.472 65.5679 122.354C58.8738 121.213 52.9325 116.383 48.8456 111.223C46.2179 107.905 44.4847 103.932 43.4784 99.847C42.7926 97.0739 38.3646 97.7224 39.056 100.523Z" fill="#EABF58"/>
<path d="M35.64 61.8903C28.3607 70.6345 25.4665 81.4863 27.209 92.7091C29.095 104.849 38.3442 111.722 49.9005 113.871C60.2343 115.792 71.8111 112.087 78.2201 103.535C84.4111 95.2716 85.5609 82.4983 78.2499 74.4046C71.1794 66.5773 59.8839 64.7622 51.192 71.0221C41.4862 78.0126 40.3364 90.8902 42.7647 101.662C43.9406 106.878 46.1695 111.871 49.7085 115.894C53.7004 120.432 60.5865 122.339 66.2967 123.235C77.8399 125.045 89.387 120.852 97.4453 112.544C114.235 95.2324 107.693 64.5646 89.3441 51.3702C80.5161 45.0226 68.8051 43.2746 59.3006 48.9736C50.7578 54.0948 45.9738 64.8572 47.8412 74.604C49.8986 85.3478 57.4295 93.8496 67.7633 97.3272C78.9581 101.095 88.7906 95.0479 95.03 86.0094C101.031 77.3174 94.7747 65.7108 85.7231 62.3134C76.377 58.8042 65.1431 62.893 61.2761 72.4702C57.3885 82.0976 59.4031 95.5586 68.2851 101.804C76.7963 107.788 87.2289 107.79 96.5172 103.691C117.397 94.4777 124.721 61.7804 109.235 44.8307C93.7423 27.8755 61.4438 40.0971 59.5802 62.1848C58.5235 74.7065 61.6805 87.4406 67.2862 98.5739C69.94 103.846 73.4362 108.908 77.7114 112.989C82.2754 117.346 88.3527 118.729 94.3796 119.7C100.297 120.652 106.173 121.232 111.911 119.135C117.041 117.26 120.733 112.667 124.028 108.555C125.907 106.211 122.599 102.858 120.7 105.227C115.925 111.185 111.398 115.751 103.284 115.924C95.9823 116.079 86.7276 114.454 81.0398 109.661C70.6203 100.881 65.5083 84.757 64.3342 71.6744C63.6838 64.4342 63.8199 57.1679 68.8293 51.4708C73.548 46.1054 80.3484 42.5403 87.4227 41.6886C93.7292 40.9283 100.144 43.133 104.924 47.2124C110.755 52.1865 112.289 60.5989 112.552 67.8577C113.053 81.7771 105.315 95.3592 92.1228 100.46C86.7257 102.547 80.9727 102.338 75.5682 100.469C68.4137 97.9962 64.9045 91.6282 64.3119 84.4178C63.6783 76.7211 66.3898 69.5498 73.8723 66.4842C80.9913 63.5676 89.2807 67.8875 92.0575 74.7382C94.8623 81.6578 88.006 88.5122 82.6295 91.8015C75.9502 95.8847 67.016 93.1377 61.3115 88.6892C50.5285 80.2787 49.1793 64.5982 59.0285 55.0807C69.7518 44.7189 85.5926 52.2759 93.8354 61.7804C103.245 72.6304 104.775 90.264 98.5262 102.959C92.0147 116.185 76.3174 121.167 62.6793 117.7C55.031 115.755 50.7242 110.954 48.2456 103.697C45.6533 96.1065 45.2507 87.6083 49.1215 80.4017C57.1612 65.4293 77.4896 72.2838 78.6096 87.9289C79.7241 103.494 62.8638 111.515 49.634 109.055C42.8392 107.791 36.8253 104.247 33.6832 97.9944C30.4741 91.6077 30.8598 83.5587 32.6825 76.8739C33.8547 72.5782 36.1413 68.6273 38.9741 65.2244C40.8955 62.9041 37.5838 59.5552 35.64 61.8903Z" fill="#F7D075"/>
<path d="M110.714 55.6159C109.035 44.3634 102.863 34.9782 93.3285 28.8096C83.0152 22.136 71.7291 24.4636 62.4315 31.6554C54.1178 38.0886 49.1774 49.192 51.2926 59.6693C53.337 69.7907 62.1035 79.1517 73.0113 79.0827C83.5594 79.0175 92.4339 71.796 93.5465 61.1435C94.7914 49.2461 85.9467 39.8161 76.2912 34.4582C71.6154 31.8622 66.4066 30.2036 61.0486 30.1663C55.0049 30.1235 48.9985 33.9942 44.5295 37.6581C35.4946 45.0679 30.9362 56.4769 31.773 68.0184C33.5136 92.0703 60.7542 107.605 82.8158 102.695C93.431 100.332 102.529 92.7561 104.603 81.8707C106.467 72.0867 101.622 61.3522 93.1049 56.2571C83.7178 50.6401 72.3609 50.6009 62.8862 55.9961C52.6213 61.8423 50.59 73.2049 53.1804 83.876C55.6721 94.1408 68.4976 97.1971 77.059 92.7039C85.8982 88.0654 90.3262 76.9619 85.7529 67.6997C81.1572 58.389 69.7704 50.9327 59.1981 53.4038C49.0674 55.7725 42.1198 63.555 38.9964 73.2142C31.9724 94.9273 51.4976 122.16 74.4537 121.888C97.4192 121.614 109.799 89.3755 94.5585 73.2812C85.9187 64.1569 74.3139 58.0368 62.2731 54.809C56.5722 53.2809 50.4689 52.5186 44.5761 52.9939C38.2863 53.4989 33.208 57.1143 28.4725 60.9645C23.8227 64.7458 19.4786 68.7452 17.2237 74.4218C15.2072 79.4983 16.1781 85.3109 17.0522 90.5067C17.5516 93.468 22.2554 93.2313 21.7522 90.2384C20.485 82.7093 20.0918 76.291 25.3621 70.1224C30.1069 64.5707 37.4812 58.7469 44.8444 57.692C58.3333 55.7613 73.7679 62.681 84.3104 70.5119C90.1454 74.8467 95.4791 79.7853 96.396 87.3162C97.2589 94.4092 95.3915 101.858 91.3195 107.704C87.6892 112.915 81.774 116.236 75.5476 117.088C67.9534 118.128 60.6554 113.673 55.0645 109.035C44.345 100.144 39.3598 85.3277 44.3357 72.0867C46.3707 66.6691 50.357 62.5151 55.3478 59.7271C61.9562 56.0353 69.0436 57.6548 74.819 62.0119C80.9838 66.6617 84.5303 73.4602 81.8374 81.0861C79.2749 88.3394 70.5326 91.6491 63.572 89.163C56.5405 86.649 55.9889 76.9712 57.1164 70.7691C58.5141 63.0667 66.5128 58.2288 73.63 56.9335C87.0835 54.4847 99.6834 63.9184 100.231 77.603C100.826 92.5027 84.6403 99.2937 72.0608 99.1167C57.6997 98.9154 43.5231 88.3188 38.2099 75.2045C32.6731 61.5404 39.4064 46.5103 51.0727 38.6421C57.6159 34.229 64.0659 34.2104 71.1309 37.194C78.522 40.3138 85.1304 45.6698 87.9314 53.3554C93.7534 69.3229 75.1041 79.9288 62.6849 70.3498C50.3291 60.8211 55.5659 42.8986 66.209 34.6632C71.675 30.4347 78.3245 28.3064 85.082 30.1216C91.9848 31.9777 97.7341 37.6245 101.508 43.4353C103.934 47.17 105.358 51.5048 106.012 55.8843C106.46 58.8624 111.163 58.622 110.714 55.6159Z" fill="#FCDB9A"/>
<path d="M50.5304 21.4762L51.4622 25.8315L54.1831 31.618L55.756 127.537L53.1041 137.571L51.0168 140.8L50.5304 21.4762Z" fill="url(#paint0_radial_4_3)"/>
<path d="M52.7239 127.863C52.8879 127.893 53.0072 127.915 53.1097 127.937C53.2234 127.941 53.3762 127.947 53.6017 127.961C54.2428 128.001 54.8783 128.025 55.5193 128.032C55.5548 128.032 55.5883 128.038 55.6237 128.04L55.756 127.538L54.185 31.6195L54.0284 31.2859C53.9874 31.3101 53.9464 31.3306 53.9054 31.3549C53.5514 31.5636 53.1991 31.7779 52.8506 31.9978C52.6997 32.1394 51.9785 32.7079 51.7884 32.8886C51.4175 33.2446 51.0112 33.5428 50.5845 33.7962L50.9646 127.415C51.5424 127.587 52.1257 127.755 52.7239 127.863Z" fill="#8A6D3F"/>
<path d="M49.1028 1.41801L44.85 157.688C44.85 157.688 48.6779 160.027 51.0148 157.688V1.41801C51.0167 1.41801 50.5918 -1.77251 49.1028 1.41801Z" fill="#912828"/>
<path d="M50.1128 0.0349121L46.0296 158.245C46.0296 158.245 47.8243 158.887 49.0282 158.68L48.935 151.924L50.1128 0.0349121Z" fill="#B95F5F"/>
<path d="M50.1128 0.034841L47.6453 158.648C47.6453 158.648 50.8694 159.03 51.0166 157.686L50.4557 0.0646881C50.4557 0.0646881 50.2563 -0.0415676 50.1128 0.034841C50.1128 0.034841 49.9693 0.113113 50.1128 0.034841Z" fill="#AF4040"/>
<path d="M49.0039 89.8154C49.0039 90.5646 48.7412 91.174 48.4169 91.174C48.0926 91.174 47.8298 90.5664 47.8298 89.8154C47.8298 89.0662 48.0926 88.4568 48.4169 88.4568C48.7412 88.4568 49.0039 89.0643 49.0039 89.8154Z" fill="#FFA773"/>
<path d="M37.6584 39.1862L38.1615 44.5329L40.1314 121.894L38.8958 124.199C38.8958 124.199 37.5242 125.619 37.6602 127.021L35.7146 126.35L36.1824 35.3024L37.6584 39.1862Z" fill="url(#paint1_radial_4_3)"/>
<path d="M38.1074 43.9703C38.0552 44.0262 38.003 44.0803 37.949 44.1362C37.4328 44.8705 36.814 45.5004 36.1263 46.0091L35.748 119.559C36.2177 119.714 36.6761 119.904 37.0973 120.181C37.6434 120.541 38.1577 120.942 38.6665 121.352C39.0597 121.644 39.4622 121.916 39.9151 122.12C39.9393 122.131 39.9617 122.148 39.9859 122.159L40.1294 121.892L38.1596 44.5313L38.1074 43.9703Z" fill="#8A6D3F"/>
<path d="M34.7044 1.41801L30.4516 157.688C30.4516 157.688 34.2795 160.027 36.6165 157.688V1.41801C36.6183 1.41801 36.1934 -1.77251 34.7044 1.41801Z" fill="#912828"/>
<path d="M35.7144 0.0349121L31.6312 158.245C31.6312 158.245 33.4259 158.887 34.6298 158.68L34.5366 151.924L35.7144 0.0349121Z" fill="#B95F5F"/>
<path d="M35.7146 0.034841L33.2472 158.648C33.2472 158.648 36.4713 159.03 36.6185 157.686L36.0575 0.0646881C36.0557 0.0646881 35.8563 -0.0415676 35.7146 0.034841C35.7146 0.034841 35.5711 0.113113 35.7146 0.034841Z" fill="#AF4040"/>
<path d="M34.6058 89.8154C34.6058 90.5646 34.343 91.174 34.0187 91.174C33.6945 91.174 33.4317 90.5664 33.4317 89.8154C33.4317 89.0662 33.6945 88.4568 34.0187 88.4568C34.343 88.4568 34.6058 89.0643 34.6058 89.8154Z" fill="#FFA773"/>
<path d="M38.1614 44.5328L41.6576 122.158L40.1313 121.892L38.1614 44.5328Z" fill="#FFD38F"/>
<path d="M54.183 31.6178L56.6784 127.613L55.6217 128.038L54.183 31.6178Z" fill="#FFD38F"/>
<path d="M36.1618 28.9136C36.1618 29.4242 35.8133 29.838 35.3828 29.838C34.9523 29.838 34.6038 29.4242 34.6038 28.9136C34.6038 28.403 34.9523 27.9893 35.3828 27.9893C35.8133 27.9893 36.1618 28.403 36.1618 28.9136Z" fill="white"/>
<path d="M48.4169 134.77C48.4169 135.811 48.0293 136.658 47.5503 136.658C47.0714 136.658 46.6837 135.811 46.6837 134.77C46.6837 133.728 47.0714 132.882 47.5503 132.882C48.0293 132.882 48.4169 133.726 48.4169 134.77Z" fill="white"/>
<path d="M33.726 97.0985C33.9905 97.0985 34.2049 96.6655 34.2049 96.1313C34.2049 95.5971 33.9905 95.1641 33.726 95.1641C33.4614 95.1641 33.247 95.5971 33.247 96.1313C33.247 96.6655 33.4614 97.0985 33.726 97.0985Z" fill="white"/>
<path d="M111.303 110.009C127.28 110.009 140.232 97.6329 140.232 82.3661C140.232 67.0992 127.28 54.7229 111.303 54.7229C95.3261 54.7229 82.3741 67.0992 82.3741 82.3661C82.3741 97.6329 95.3261 110.009 111.303 110.009Z" fill="#5C1A09"/>
<path d="M110.697 109.372C126.34 109.372 139.021 97.1383 139.021 82.0474C139.021 66.9565 126.34 54.7229 110.697 54.7229C95.0549 54.7229 82.3741 66.9565 82.3741 82.0474C82.3741 97.1383 95.0549 109.372 110.697 109.372Z" fill="#6A2A2A"/>
<path d="M110.507 108.155C125.783 108.155 138.166 95.7717 138.166 80.4958C138.166 65.22 125.783 52.8364 110.507 52.8364C95.2309 52.8364 82.8474 65.22 82.8474 80.4958C82.8474 95.7717 95.2309 108.155 110.507 108.155Z" fill="#D34040"/>
<path d="M110.507 107.054C125.174 107.054 137.064 95.1634 137.064 80.496C137.064 65.8287 125.174 53.9385 110.507 53.9385C95.8395 53.9385 83.9493 65.8287 83.9493 80.496C83.9493 95.1634 95.8395 107.054 110.507 107.054Z" fill="#F35C53"/>
<path d="M128.75 98.75C138.829 88.6708 138.829 72.3292 128.75 62.25C118.671 52.1708 102.329 52.1708 92.25 62.25C82.1708 72.3292 82.1708 88.6708 92.25 98.75C102.329 108.829 118.671 108.829 128.75 98.75Z" fill="#F35C53"/>
<path d="M110.507 105.96C124.571 105.96 135.971 94.5595 135.971 80.4958C135.971 66.432 124.571 55.0311 110.507 55.0311C96.4431 55.0311 85.0422 66.432 85.0422 80.4958C85.0422 94.5595 96.4431 105.96 110.507 105.96Z" fill="#C02E24"/>
<path d="M128.053 98.0527C137.747 88.3586 137.747 72.6414 128.053 62.9473C118.359 53.2532 102.641 53.2532 92.9471 62.9473C83.253 72.6414 83.253 88.3586 92.9471 98.0527C102.641 107.747 118.359 107.747 128.053 98.0527Z" fill="#FF9D97"/>
<path d="M128.736 96.2653C137.089 86.2065 135.607 71.1996 125.427 62.7466C115.248 54.2935 100.224 55.5953 91.8715 65.6542C83.519 75.713 85.0004 90.7199 95.1803 99.1729C105.36 107.626 120.384 106.324 128.736 96.2653Z" fill="#DF6565"/>
<path d="M110.507 101.669C122.2 101.669 131.68 92.1895 131.68 80.4959C131.68 68.8024 122.2 59.3229 110.507 59.3229C98.8131 59.3229 89.3337 68.8024 89.3337 80.4959C89.3337 92.1895 98.8131 101.669 110.507 101.669Z" fill="#FF9D97"/>
<path d="M117.298 99.6482C127.873 95.8817 133.393 84.2554 129.626 73.6802C125.86 63.1049 114.233 57.5853 103.658 61.3518C93.0829 65.1182 87.5633 76.7445 91.3297 87.3197C95.0962 97.895 106.722 103.415 117.298 99.6482Z" fill="#FF8585"/>
<path d="M110.507 99.1204C120.793 99.1204 129.131 90.782 129.131 80.4961C129.131 70.2101 120.793 61.8717 110.507 61.8717C100.221 61.8717 91.8824 70.2101 91.8824 80.4961C91.8824 90.782 100.221 99.1204 110.507 99.1204Z" fill="#F26C6C"/>
<path d="M110.507 98.4747C120.436 98.4747 128.485 90.4254 128.485 80.4959C128.485 70.5665 120.436 62.5171 110.507 62.5171C100.577 62.5171 92.5278 70.5665 92.5278 80.4959C92.5278 90.4254 100.577 98.4747 110.507 98.4747Z" fill="#FF8585"/>
<path d="M118.572 82.4686C119.655 78.0029 116.913 73.5047 112.447 72.4216C107.981 71.3385 103.483 74.0806 102.4 78.5463C101.317 83.0121 104.059 87.5102 108.525 88.5933C112.99 89.6765 117.489 86.9343 118.572 82.4686Z" fill="#CA4844"/>
<path d="M111.19 88.0284C115.374 87.6405 118.452 83.9345 118.064 79.7506C117.676 75.5668 113.97 72.4895 109.786 72.8774C105.602 73.2652 102.525 76.9713 102.913 81.1551C103.301 85.3389 107.007 88.4162 111.19 88.0284Z" fill="#FF928A"/>
<path d="M111.146 87.5508C115.065 87.1875 117.948 83.7156 117.585 79.7962C117.221 75.8768 113.749 72.9939 109.83 73.3573C105.91 73.7206 103.028 77.1925 103.391 81.1119C103.754 85.0314 107.226 87.9141 111.146 87.5508Z" fill="#FF685F"/>
<path d="M119.62 62.1298C117.472 65.7736 115.321 69.4197 113.173 73.0635C113.26 73.3863 113.696 73.4998 114.003 73.3662C114.311 73.2327 114.511 72.9389 114.696 72.6584C115.953 70.7575 117.211 68.8565 118.36 66.8888C119.096 65.6267 119.806 64.2867 119.902 62.8287C119.918 62.5794 119.867 62.2611 119.624 62.201L119.62 62.1298Z" fill="#CA4844"/>
<path d="M111.426 77.4841C113.189 74.3144 114.952 71.1425 116.713 67.9728C118.004 65.6489 119.31 63.2916 119.994 60.7407C122.614 61.2393 125.058 62.4858 126.974 64.3C121.721 68.8765 116.786 73.8336 112.23 79.1158L111.426 77.4841Z" fill="#DF6565"/>
<path d="M129.224 89.1748C128.543 89.1837 127.929 88.7986 127.344 88.4536C124.307 86.6572 120.873 85.5376 117.36 85.1993C117.256 85.1903 117.133 85.1659 117.093 85.0701C117.064 85.0011 117.095 84.9232 117.124 84.8542C117.327 84.3779 117.527 83.9015 117.73 83.4252C117.788 83.2872 117.854 83.1403 117.988 83.069C118.233 82.9377 118.516 83.1425 118.727 83.325C120.014 84.4357 121.614 85.0991 123.137 85.8559C125.037 86.7997 126.854 87.9149 128.559 89.1837L129.224 89.1748Z" fill="#CA4844"/>
<path d="M114.168 80.5208C117.596 81.0505 121.024 81.5803 124.452 82.1101C126.965 82.4996 129.512 82.8891 132.04 82.6309C132.403 85.2442 132.031 87.9553 130.981 90.3772C125.189 87.0895 119.154 84.2314 112.94 81.8385L114.168 80.5208Z" fill="#DF6565"/>
<path d="M95.0479 95.1647C97.9215 91.7568 101.561 89.0969 105.165 86.4703C104.942 86.0963 104.646 85.7646 104.299 85.4998C102.405 86.9644 100.604 88.547 98.9076 90.2365C97.4051 91.7323 95.9672 93.3439 95.0523 95.256L95.0479 95.1647Z" fill="#CA4844"/>
<path d="M107.829 83.002C105.249 85.3215 102.669 87.6387 100.092 89.9581C98.1996 91.6587 96.2876 93.3816 94.8852 95.5029C92.6326 94.1295 90.7673 92.1261 89.5586 89.78C95.7689 87.376 101.801 84.5112 107.586 81.2124L107.829 83.002Z" fill="#DF6565"/>
<path d="M111.056 101.892C110.251 97.3462 109.886 92.7207 109.968 88.1042C110.371 87.9817 110.792 87.9261 111.212 87.9394C112.096 92.4959 112.141 97.2149 111.344 101.789L111.056 101.892Z" fill="#CA4844"/>
<path d="M111.651 84.1887C112.839 87.4474 114.026 90.7062 115.215 93.9649C116.085 96.3533 116.971 98.7729 118.415 100.865C116.301 102.443 113.745 103.425 111.119 103.67C111.208 97.0122 110.801 90.3456 109.901 83.7479L111.651 84.1887Z" fill="#DF6565"/>
<path d="M93.238 67.8458C94.509 68.1129 95.3504 69.2726 96.2453 70.2142C98.4645 72.5558 101.614 73.9359 103.546 76.5202C103.74 76.2843 103.934 76.0483 104.127 75.8124C104.187 75.7389 104.25 75.661 104.256 75.5675C104.265 75.4495 104.185 75.3449 104.109 75.2536C101.55 72.1908 98.7672 69.1257 95.1123 67.5208C94.4422 67.2269 93.6053 67.0044 93.0243 67.4473C93.0198 67.5364 93.0132 67.6276 93.0065 67.7167L93.238 67.8458Z" fill="#CA4844"/>
<path d="M107.057 78.1164C104.33 75.9728 101.605 73.827 98.8785 71.6834C96.8796 70.1119 94.854 68.5226 92.5234 67.5054C93.4917 65.0502 95.1456 62.871 97.2491 61.2772C100.682 66.9845 104.537 72.4358 108.777 77.571L107.057 78.1164Z" fill="#DF6565"/>
<path d="M109.327 71.7742C108 70.6991 107.319 68.8827 107.613 67.1999C107.751 66.4075 108.152 65.5883 108.893 65.27C109.848 64.8605 111.014 65.4993 111.455 66.4409C111.893 67.3824 111.749 68.5021 111.386 69.4748C111.023 70.452 110.453 71.3513 109.723 72.097C109.63 72.048 109.407 71.8388 109.327 71.7742Z" fill="#CA4844"/>
<path d="M109.572 70.8995C108.481 70.0158 107.922 68.5222 108.163 67.1399C108.276 66.4877 108.606 65.8133 109.213 65.5528C109.997 65.2145 110.958 65.742 111.319 66.5166C111.68 67.2913 111.559 68.2106 111.263 69.0119C110.965 69.8155 110.495 70.5545 109.897 71.1688C109.821 71.1243 109.638 70.9529 109.572 70.8995Z" fill="#FAD383"/>
<path d="M110.709 67.5743C110.438 67.9015 109.952 67.946 109.623 67.6744C109.293 67.4029 109.251 66.9176 109.523 66.5882C109.794 66.261 110.28 66.2165 110.609 66.488C110.936 66.7596 110.981 67.2471 110.709 67.5743Z" fill="#E4B34C"/>
<path d="M110.342 69.624C110.155 69.8488 109.825 69.8867 109.607 69.7042C109.389 69.5239 109.365 69.1922 109.552 68.9674C109.739 68.7426 110.068 68.7047 110.286 68.8872C110.504 69.0675 110.529 69.3992 110.342 69.624Z" fill="#E4B34C"/>
<path d="M110.607 66.9865C110.471 67.1512 110.204 67.1512 110.008 66.9909C109.814 66.8285 109.765 66.5658 109.901 66.4011C110.037 66.2364 110.306 66.2364 110.5 66.3966C110.696 66.5591 110.743 66.824 110.607 66.9865Z" fill="#FFEAB8"/>
<path d="M118.676 77.9983C119.079 76.3399 120.43 74.9465 122.075 74.4902C122.852 74.2743 123.762 74.2876 124.368 74.8196C125.147 75.5052 125.069 76.8363 124.405 77.6354C123.742 78.4345 122.669 78.7818 121.634 78.873C120.595 78.9643 119.537 78.833 118.551 78.4946C118.56 78.39 118.651 78.0984 118.676 77.9983Z" fill="#CA4844"/>
<path d="M119.571 77.8464C119.903 76.4819 121.013 75.3378 122.364 74.9616C123.003 74.7858 123.751 74.7947 124.25 75.231C124.891 75.7963 124.826 76.8893 124.281 77.5459C123.736 78.2048 122.854 78.4897 122.004 78.5632C121.149 78.6389 120.281 78.5298 119.471 78.2515C119.475 78.1692 119.551 77.9288 119.571 77.8464Z" fill="#FAD383"/>
<path d="M123.066 77.4503C122.654 77.3457 122.404 76.925 122.509 76.5132C122.614 76.1014 123.034 75.8521 123.446 75.9567C123.858 76.0613 124.107 76.482 124.003 76.8938C123.898 77.3056 123.477 77.5549 123.066 77.4503Z" fill="#E4B34C"/>
<path d="M121.053 77.9959C120.769 77.9224 120.595 77.642 120.666 77.366C120.737 77.09 121.025 76.9275 121.309 77.0009C121.594 77.0744 121.768 77.3548 121.697 77.6309C121.626 77.9047 121.338 78.0694 121.053 77.9959Z" fill="#E4B34C"/>
<path d="M123.551 77.1053C123.344 77.0519 123.228 76.8115 123.29 76.5666C123.353 76.3217 123.571 76.1659 123.778 76.2171C123.985 76.2706 124.101 76.5109 124.038 76.7558C123.974 77.0029 123.758 77.1587 123.551 77.1053Z" fill="#FFEAB8"/>
<path d="M101.717 80.2511C100.561 81.5087 98.705 82.0741 97.0444 81.6757C96.2609 81.4887 95.4684 81.0368 95.1969 80.2778C94.8474 79.3006 95.5598 78.1743 96.5258 77.7936C97.4919 77.413 98.6003 77.6289 99.5486 78.0518C100.501 78.4748 101.365 79.1003 102.062 79.8749C102.008 79.9639 101.786 80.1732 101.717 80.2511Z" fill="#CA4844"/>
<path d="M100.86 79.9513C99.9094 80.9841 98.3847 81.4494 97.018 81.1244C96.3747 80.9708 95.7225 80.599 95.4999 79.9758C95.2127 79.1722 95.7981 78.2462 96.5928 77.9346C97.3874 77.623 98.2979 77.7988 99.0792 78.1461C99.8627 78.4933 100.571 79.0075 101.145 79.6441C101.1 79.7153 100.918 79.889 100.86 79.9513Z" fill="#FAD383"/>
<path d="M97.6098 78.607C97.9192 78.8986 97.9348 79.3861 97.6432 79.6955C97.3516 80.0049 96.8642 80.0205 96.5547 79.7289C96.2453 79.4373 96.2298 78.9498 96.5214 78.6404C96.813 78.331 97.3004 78.3154 97.6098 78.607Z" fill="#E4B34C"/>
<path d="M99.6355 79.103C99.8492 79.3034 99.8648 79.635 99.6711 79.842C99.4774 80.0491 99.1458 80.0535 98.9321 79.8509C98.7184 79.6506 98.7028 79.3189 98.8965 79.1119C99.0901 78.9049 99.4218 78.9005 99.6355 79.103Z" fill="#FFE199"/>
<path d="M97.0199 78.6736C97.1757 78.8205 97.1601 79.0877 96.9865 79.2724C96.8129 79.4572 96.5458 79.4883 96.3922 79.3414C96.2364 79.1945 96.2519 78.9274 96.4256 78.7426C96.597 78.5579 96.8641 78.5267 97.0199 78.6736Z" fill="#FFEAB8"/>
<path d="M107.31 88.7247C107.876 90.3363 107.502 92.2394 106.371 93.5193C105.837 94.1226 105.066 94.6101 104.27 94.4921C103.241 94.3407 102.585 93.1832 102.703 92.1504C102.823 91.1176 103.533 90.2428 104.352 89.6039C105.173 88.9629 106.13 88.4954 107.143 88.2439C107.194 88.3329 107.277 88.6268 107.31 88.7247Z" fill="#CA4844"/>
<path d="M106.642 89.339C107.108 90.6634 106.8 92.2282 105.87 93.2811C105.432 93.7775 104.797 94.1782 104.143 94.0802C103.297 93.9556 102.756 93.0051 102.856 92.1548C102.956 91.3045 103.539 90.5855 104.212 90.0602C104.886 89.5326 105.674 89.1498 106.507 88.9406C106.549 89.0162 106.614 89.2589 106.642 89.339Z" fill="#FFE199"/>
<path d="M103.929 91.5742C104.332 91.4384 104.77 91.6543 104.906 92.0572C105.042 92.4601 104.826 92.8986 104.423 93.0344C104.02 93.1701 103.582 92.9542 103.446 92.5513C103.308 92.1485 103.526 91.7099 103.929 91.5742Z" fill="#E4B34C"/>
<path d="M105.318 90.0203C105.596 89.9268 105.894 90.0693 105.986 90.3364C106.077 90.6057 105.925 90.8995 105.647 90.993C105.369 91.0865 105.071 90.9441 104.979 90.6769C104.888 90.4076 105.039 90.1138 105.318 90.0203Z" fill="#E4B34C"/>
<path d="M103.709 92.126C103.911 92.057 104.14 92.1972 104.22 92.4376C104.301 92.678 104.203 92.9273 104.002 92.9941C103.8 93.0631 103.571 92.9229 103.49 92.6825C103.41 92.4443 103.508 92.195 103.709 92.126Z" fill="#FFEAB8"/>
<path d="M116.679 86.6239C118.387 86.6395 120.052 87.6367 120.871 89.1347C121.256 89.8403 121.454 90.7329 121.073 91.4408C120.581 92.3556 119.27 92.5827 118.34 92.1197C117.409 91.6567 116.826 90.6907 116.503 89.7046C116.178 88.714 116.065 87.6545 116.17 86.6172C116.27 86.5972 116.575 86.6216 116.679 86.6239Z" fill="#CA4844"/>
<path d="M117.031 87.4581C118.436 87.4715 119.802 88.2906 120.477 89.5216C120.795 90.1025 120.955 90.8349 120.644 91.4181C120.241 92.1704 119.161 92.3574 118.396 91.9768C117.632 91.5961 117.151 90.8015 116.886 89.9913C116.619 89.1766 116.526 88.3062 116.613 87.4537C116.695 87.4381 116.944 87.4581 117.031 87.4581Z" fill="#FFE199"/>
<path d="M118.213 90.7705C118.222 90.3454 118.574 90.007 118.999 90.0159C119.424 90.0248 119.762 90.3765 119.753 90.8017C119.744 91.2268 119.393 91.5652 118.968 91.5563C118.542 91.5474 118.204 91.1957 118.213 90.7705Z" fill="#E4B34C"/>
<path d="M117.222 88.9362C117.229 88.6424 117.463 88.4086 117.748 88.4153C118.03 88.422 118.257 88.6646 118.251 88.9584C118.244 89.2523 118.01 89.486 117.725 89.4793C117.441 89.4726 117.216 89.23 117.222 88.9362Z" fill="#E4B34C"/>
<path d="M118.658 91.1645C118.663 90.9508 118.872 90.7838 119.123 90.7883C119.377 90.7927 119.577 90.9708 119.573 91.1823C119.569 91.396 119.359 91.5629 119.108 91.5585C118.854 91.554 118.654 91.3782 118.658 91.1645Z" fill="#FFEAB8"/>
<path d="M117.48 58.2605C117.878 57.782 117.735 57.0075 117.161 56.5308C116.587 56.054 115.799 56.0555 115.402 56.534C115.004 57.0126 115.147 57.787 115.721 58.2638C116.296 58.7405 117.083 58.7391 117.48 58.2605Z" fill="#FFEAB8"/>
<path d="M111.869 57.1924C111.589 57.5285 111.134 57.6109 110.852 57.3771C110.569 57.1434 110.567 56.6804 110.847 56.3443C111.128 56.0082 111.582 55.9258 111.865 56.1596C112.147 56.3933 112.149 56.8563 111.869 57.1924Z" fill="#FFEAB8"/>
<path d="M109.042 105.428C108.828 105.684 108.348 105.638 107.967 105.324C107.586 105.008 107.453 104.545 107.666 104.287C107.88 104.031 108.361 104.077 108.742 104.391C109.122 104.707 109.256 105.17 109.042 105.428Z" fill="#FFEAB8"/>
<path d="M103.444 100.385C103.337 100.514 103.137 100.523 102.996 100.407C102.856 100.291 102.829 100.093 102.936 99.9639C103.043 99.8348 103.243 99.8259 103.384 99.9417C103.524 100.057 103.551 100.258 103.444 100.385Z" fill="#FFEAB8"/>
<path d="M64.8465 58.3424C66.7701 58.3424 68.3296 57.5627 68.3296 56.6008C68.3296 55.639 66.7701 54.8593 64.8465 54.8593C62.9228 54.8593 61.3633 55.639 61.3633 56.6008C61.3633 57.5627 62.9228 58.3424 64.8465 58.3424Z" fill="white"/>
<path d="M63.1049 74.8875C64.0667 74.8875 64.8465 74.3027 64.8465 73.5813C64.8465 72.8599 64.0667 72.2751 63.1049 72.2751C62.1431 72.2751 61.3633 72.8599 61.3633 73.5813C61.3633 74.3027 62.1431 74.8875 63.1049 74.8875Z" fill="white"/>
<path d="M66.588 92.7384C66.588 92.9779 66.1989 93.1738 65.7172 93.1738C65.2355 93.1738 64.8464 92.9795 64.8464 92.7384C64.8464 92.4972 65.2355 92.303 65.7172 92.303C66.1989 92.303 66.588 92.4988 66.588 92.7384Z" fill="white"/>
<path d="M70.942 119.732C70.942 120.453 70.3572 121.039 69.6358 121.039C68.9144 121.039 68.3297 120.453 68.3297 119.732C68.3297 119.012 68.9144 118.426 69.6358 118.426C70.3589 118.426 70.942 119.012 70.942 119.732Z" fill="white"/>
<defs>
<radialGradient id="paint0_radial_4_3" cx="0" cy="0" r="1" gradientUnits="userSpaceOnUse" gradientTransform="translate(53.1432 81.1377) scale(42.2281 42.2281)">
<stop stop-color="#330902"/>
<stop offset="1" stop-color="#170300"/>
</radialGradient>
<radialGradient id="paint1_radial_4_3" cx="0" cy="0" r="1" gradientUnits="userSpaceOnUse" gradientTransform="translate(37.9226 81.1597) scale(32.4644 32.4645)">
<stop stop-color="#330902"/>
<stop offset="1" stop-color="#170300"/>
</radialGradient>
</defs>
</svg>
