<svg id="visual" viewBox="0 0 540 960" width="540" height="960" xmlns="http://www.w3.org/2000/svg" xmlns:xlink="http://www.w3.org/1999/xlink" version="1.1"><path d="M0 195L10 187.2C20 179.3 40 163.7 60 157.2C80 150.7 100 153.3 120 164.7C140 176 160 196 180 201.3C200 206.7 220 197.3 240 188C260 178.7 280 169.3 300 171.2C320 173 340 186 360 198.3C380 210.7 400 222.3 420 216.7C440 211 460 188 480 187.7C500 187.3 520 209.7 530 220.8L540 232L540 0L530 0C520 0 500 0 480 0C460 0 440 0 420 0C400 0 380 0 360 0C340 0 320 0 300 0C280 0 260 0 240 0C220 0 200 0 180 0C160 0 140 0 120 0C100 0 80 0 60 0C40 0 20 0 10 0L0 0Z" fill="#70b9be"></path><path d="M0 83L10 92.8C20 102.7 40 122.3 60 132.2C80 142 100 142 120 141.3C140 140.7 160 139.3 180 127C200 114.7 220 91.3 240 80C260 68.7 280 69.3 300 74.8C320 80.3 340 90.7 360 92.5C380 94.3 400 87.7 420 79.2C440 70.7 460 60.3 480 61.3C500 62.3 520 74.7 530 80.8L540 87L540 0L530 0C520 0 500 0 480 0C460 0 440 0 420 0C400 0 380 0 360 0C340 0 320 0 300 0C280 0 260 0 240 0C220 0 200 0 180 0C160 0 140 0 120 0C100 0 80 0 60 0C40 0 20 0 10 0L0 0Z" fill="#042628"></path></svg>