<svg width="24" height="24" viewBox="0 0 24 24" fill="none" xmlns="http://www.w3.org/2000/svg">
<path d="M14.3383 8.80377L7.21329 21.1446" stroke="#0A2533" stroke-width="1.5" stroke-linecap="round" stroke-linejoin="round"/>
<path d="M12.5665 18.8943C11.2245 19.2539 9.08118 18.1811 9.08118 18.1811C9.08118 18.1811 10.4287 15.7833 11.9305 15.496C13.2566 15.2423 15.2283 16.534 15.2283 16.534C15.2283 16.534 13.9085 18.5347 12.5665 18.8943Z" stroke="#0A2533" stroke-width="1.5" stroke-linecap="round" stroke-linejoin="round"/>
<path d="M15.5679 13.6957C14.2259 14.0553 12.0826 12.9825 12.0826 12.9825C12.0826 12.9825 13.4301 10.5846 14.9319 10.2974C16.258 10.0437 18.2297 11.3354 18.2297 11.3354C18.2297 11.3354 16.9099 13.3361 15.5679 13.6957Z" stroke="#0A2533" stroke-width="1.5" stroke-linecap="round" stroke-linejoin="round"/>
<path d="M17.3072 6.84358C16.6125 8.04676 14.3384 8.80376 14.3384 8.80376C14.3384 8.80376 13.5957 6.15537 14.4545 4.89036C15.2128 3.77327 17.5203 3.2924 17.5203 3.2924C17.5203 3.2924 18.0018 5.64039 17.3072 6.84358Z" stroke="#0A2533" stroke-width="1.5" stroke-linecap="round" stroke-linejoin="round"/>
<path d="M6.39611 15.3318C6.75569 16.6737 8.75645 17.9936 8.75645 17.9936C8.75645 17.9936 10.1592 15.6276 9.65717 14.1835C9.2138 12.9082 7.10933 11.8464 7.10933 11.8464C7.10933 11.8464 6.03653 13.9898 6.39611 15.3318Z" stroke="#0A2533" stroke-width="1.5" stroke-linecap="round" stroke-linejoin="round"/>
<path d="M9.39751 10.1332C9.7571 11.4752 11.7579 12.795 11.7579 12.795C11.7579 12.795 13.1606 10.4291 12.6586 8.98491C12.2152 7.70961 10.1107 6.64789 10.1107 6.64789C10.1107 6.64789 9.03793 8.79125 9.39751 10.1332Z" stroke="#0A2533" stroke-width="1.5" stroke-linecap="round" stroke-linejoin="round"/>
</svg>
